<svg width="40" height="40" viewBox="0 0 40 40" fill="none" xmlns="http://www.w3.org/2000/svg">
<g clip-path="url(#clip0_1614_72702)">
<path d="M33.334 5C34.218 5 35.0659 5.35119 35.691 5.97631C36.3161 6.60143 36.6673 7.44928 36.6673 8.33333V31.6667C36.6673 32.5507 36.3161 33.3986 35.691 34.0237C35.0659 34.6488 34.218 35 33.334 35H6.66732C5.78326 35 4.93542 34.6488 4.31029 34.0237C3.68517 33.3986 3.33398 32.5507 3.33398 31.6667V8.33333C3.33398 7.44928 3.68517 6.60143 4.31029 5.97631C4.93542 5.35119 5.78326 5 6.66732 5H33.334ZM33.334 8.33333H6.66732V31.6667H8.21565L23.729 16.1533C23.9224 15.9598 24.1521 15.8063 24.4049 15.7016C24.6577 15.5968 24.9287 15.5429 25.2023 15.5429C25.476 15.5429 25.7469 15.5968 25.9997 15.7016C26.2525 15.8063 26.4822 15.9598 26.6756 16.1533L33.334 22.81V8.33333ZM12.5007 11.6667C13.1637 11.6667 13.7996 11.9301 14.2684 12.3989C14.7373 12.8677 15.0007 13.5036 15.0007 14.1667C15.0007 14.8297 14.7373 15.4656 14.2684 15.9344C13.7996 16.4033 13.1637 16.6667 12.5007 16.6667C11.8376 16.6667 11.2017 16.4033 10.7329 15.9344C10.264 15.4656 10.0007 14.8297 10.0007 14.1667C10.0007 13.5036 10.264 12.8677 10.7329 12.3989C11.2017 11.9301 11.8376 11.6667 12.5007 11.6667Z" fill="#09032A"/>
<rect x="16" width="24" height="24" rx="12" fill="#2F0FD1"/>
<g clip-path="url(#clip1_1614_72702)">
<path d="M27.5625 17.5C27.5625 17.7486 27.6613 17.9871 27.8371 18.1629C28.0129 18.3387 28.2514 18.4375 28.5 18.4375C28.7486 18.4375 28.9871 18.3387 29.1629 18.1629C29.3387 17.9871 29.4375 17.7486 29.4375 17.5V13.4375H33.5C33.7486 13.4375 33.9871 13.3387 34.1629 13.1629C34.3387 12.9871 34.4375 12.7486 34.4375 12.5C34.4375 12.2514 34.3387 12.0129 34.1629 11.8371C33.9871 11.6613 33.7486 11.5625 33.5 11.5625H29.4375V7.5C29.4375 7.25136 29.3387 7.0129 29.1629 6.83709C28.9871 6.66127 28.7486 6.5625 28.5 6.5625C28.2514 6.5625 28.0129 6.66127 27.8371 6.83709C27.6613 7.0129 27.5625 7.25136 27.5625 7.5V11.5625H23.5C23.2514 11.5625 23.0129 11.6613 22.8371 11.8371C22.6613 12.0129 22.5625 12.2514 22.5625 12.5C22.5625 12.7486 22.6613 12.9871 22.8371 13.1629C23.0129 13.3387 23.2514 13.4375 23.5 13.4375H27.5625V17.5Z" fill="white"/>
</g>
</g>
<defs>
<clipPath id="clip0_1614_72702">
<rect width="40" height="40" fill="white"/>
</clipPath>
<clipPath id="clip1_1614_72702">
<rect width="15" height="15" fill="white" transform="translate(21 5)"/>
</clipPath>
</defs>
</svg>
